<?xml version="1.0" standalone="no"?><!DOCTYPE svg PUBLIC "-//W3C//DTD SVG 1.1//EN" "http://www.w3.org/Graphics/SVG/1.1/DTD/svg11.dtd"><svg t="1551144210852" class="icon" style="" viewBox="0 0 1024 1024" version="1.1" xmlns="http://www.w3.org/2000/svg" p-id="2798" xmlns:xlink="http://www.w3.org/1999/xlink" width="200" height="200"><defs><style type="text/css"></style></defs><path d="M917.653 408.693h-483.2c-39.68 0-71.786 32.107-71.786 71.787v400.107c0 39.68 32.106 71.786 71.786 71.786h183.68l26.24 45.44c14.08 24.427 49.387 24.427 63.467 0l26.24-45.44h183.68c39.68 0 71.787-32.106 71.787-71.786v-400c0-39.68-32.214-71.894-71.894-71.894z" fill="#727272" p-id="2799"></path><path d="M721.813 54.453h-616.96c-39.68 0-71.786 32.107-71.786 71.787v659.52c0 39.68 32.106 71.787 71.786 71.787h616.96c39.68 0 71.787-32.107 71.787-71.787V126.24c0.107-39.68-32.107-71.787-71.787-71.787z" p-id="2800"></path><path d="M641.92 230.88H178.453c-19.84 0-35.946 16.107-35.946 35.947s16.106 35.946 35.946 35.946H641.92c19.84 0 35.947-16.106 35.947-35.946S661.76 230.88 641.92 230.88zM413.333 420.107h-234.88c-19.84 0-35.946 16.106-35.946 35.946S158.613 492 178.453 492h234.88c19.84 0 35.947-16.107 35.947-35.947s-16.107-35.946-35.947-35.946z" fill="#FFFFFF" p-id="2801"></path></svg>