<?xml version="1.0" standalone="no"?><!DOCTYPE svg PUBLIC "-//W3C//DTD SVG 1.1//EN" "http://www.w3.org/Graphics/SVG/1.1/DTD/svg11.dtd"><svg t="1551144284739" class="icon" style="" viewBox="0 0 1024 1024" version="1.1" xmlns="http://www.w3.org/2000/svg" p-id="1733" xmlns:xlink="http://www.w3.org/1999/xlink" width="200" height="200"><defs><style type="text/css"></style></defs><path d="M614.874 517.419a164.01 64.293 0 1 0 335.667 0 164.01 64.293 0 1 0-335.667 0z" p-id="1734"></path><path d="M913.395 697.555H652.023l88.852-180.136h83.246z" p-id="1735"></path><path d="M1023.37 823.689c0 22.03-18.025 40.055-40.055 40.055H582.102c-22.029 0-40.055-18.025-40.055-40.055v-94.184c0-22.03 18.025-40.055 40.055-40.055h401.213c22.029 0 40.054 18.025 40.054 40.055v94.184z" p-id="1736"></path><path d="M486.672 859.029h-350.1V156.814h702.213V365.69h134.267V127.74c0-58.003-47.19-105.192-105.194-105.192h-760.36C49.492 22.549 2.304 69.738 2.304 127.74v760.36c0 58.004 47.19 105.193 105.192 105.193h379.174V859.029z" p-id="1737"></path><path d="M735.05 330.135c0 22.03-18.025 40.055-40.056 40.055H271.541c-22.03 0-40.055-18.024-40.055-40.055V319.15c0-22.03 18.024-40.055 40.055-40.055h423.453c22.03 0 40.055 18.025 40.055 40.055v10.986zM495.077 588.665c0 22.03-18.025 40.055-40.055 40.055H271.541c-22.03 0-40.055-18.025-40.055-40.055v-10.988c0-22.03 18.024-40.055 40.055-40.055h183.481c22.029 0 40.055 18.025 40.055 40.055v10.988z" p-id="1738"></path></svg>