<?xml version="1.0" standalone="no"?><!DOCTYPE svg PUBLIC "-//W3C//DTD SVG 1.1//EN" "http://www.w3.org/Graphics/SVG/1.1/DTD/svg11.dtd"><svg t="1551144324140" class="icon" style="" viewBox="0 0 1024 1024" version="1.1" xmlns="http://www.w3.org/2000/svg" p-id="3009" xmlns:xlink="http://www.w3.org/1999/xlink" width="200" height="200"><defs><style type="text/css"></style></defs><path d="M290.41792948 209.17998933c-26.31027675 0-47.50753185 21.19240059-47.50753185 47.50753185 0 26.30420859 21.19725511 47.49660918 47.50753185 47.49660919h416.40118044c26.11973689 0 47.50995911-21.19240059 47.50995911-47.49660919 0-26.31513125-21.20210963-47.50753185-47.50995911-47.50753185h-81.38721659v-103.15609125c0-41.83381333-33.87968475-75.70985718-75.70985718-75.70985719h-102.203392c-41.83381333 0-75.7062163 33.87483022-75.7062163 75.70985719v103.15609125h-81.39449837zM498.61366518 72.8966637c27.6355603 0 50.16659437 22.52617955 50.16659437 50.16659438 0 27.63070578-22.53103408 50.15324445-50.16659437 50.15324444-27.63070578 0-50.14838992-22.52132503-50.14838993-50.15324444 0-27.64041482 22.51768415-50.16659437 50.1471763-50.16659438z m224.48143171 534.94730905c-106.56881778 0-192.92463408 86.34732089-192.92463407 192.9258477 0 106.56881778 86.35702992 192.91492503 192.92463407 192.91492503 106.5736723 0 192.92220682-86.34610725 192.92220681-192.91492503 0-106.57852682-86.34853452-192.9258477-192.92220681-192.9258477z m134.65342103 217.4982068h-134.6522074a24.51167763 24.51167763 0 0 1-24.57357274-24.5723591V671.30466608a24.51531852 24.51531852 0 0 1 24.57235911-24.57357275 24.51653215 24.51653215 0 0 1 24.57357274 24.57357275v104.89158162h110.07863467a24.50560948 24.50560948 0 0 1 24.57357273 24.57357275 24.50925037 24.50925037 0 0 1-24.57235911 24.5723591z m-675.93587674 48.32794548V210.92518875c0-10.04157155 8.16530015-18.20323082 18.20201719-18.20323083H321.73928297v-73.83358577H200.01465837c-50.74428208 0-92.0331757 41.28768-92.0331757 92.0368166v662.74493628c0 50.7454957 41.28525275 92.02953482 92.0331757 92.02953482h298.60750222v-73.8347994H200.01465837c-10.03671703 0-18.20201718-8.16287289-18.20201719-18.19473542z m633.61175704-662.74493628V581.7837037h73.83115853V210.92518875c0-50.74792297-41.28403911-92.03681659-92.03317572-92.0368166H677.86676148v73.83358577h119.35561955c10.03671703-0.00485452 18.20201718 8.16044563 18.20201719 18.20323083zM273.22079763 382.72781275h450.79908504v73.83601303H273.22079763v-73.83601303z m0 188.20118755h265.6708077v73.82873125H273.22079763v-73.82873125z m0 0" p-id="3010"></path></svg>