<?xml version="1.0" standalone="no"?><!DOCTYPE svg PUBLIC "-//W3C//DTD SVG 1.1//EN" "http://www.w3.org/Graphics/SVG/1.1/DTD/svg11.dtd"><svg t="1551144308075" class="icon" style="" viewBox="0 0 1024 1024" version="1.1" xmlns="http://www.w3.org/2000/svg" p-id="2538" xmlns:xlink="http://www.w3.org/1999/xlink" width="200" height="200"><defs><style type="text/css"></style></defs><path d="M963.800118 218.169574a72.849858 72.849858 0 0 0-57.512888-63.902875 1357.957348 1357.957348 0 0 1-185.960637-42.815917 690.800651 690.800651 0 0 1-166.149675-97.13381 76.045851 76.045851 0 0 0-88.826827 0 435.824149 435.824149 0 0 1-167.427673 96.494812 624.340781 624.340781 0 0 1-180.848647 44.732912A67.737868 67.737868 0 0 0 60.200882 219.448571s-1.916996 160.398687-1.916996 301.626411c0 255.615501 301.626411 502.923018 452.439116 502.923018s406.429206-174.457659 447.327127-499.089025c10.22398-191.711626 3.194994-306.099402 3.194994-306.099402zM799.567438 415.634188L484.520054 712.786608a42.815916 42.815916 0 0 1-52.400898 5.11199l-8.306984-7.029986-173.81966-180.847647a42.815916 42.815916 0 0 1 63.904875-58.790885l143.14472 150.173706 283.732446-268.396475a42.815916 42.815916 0 1 1 58.791885 63.903875" p-id="2539"></path></svg>