<?xml version="1.0" standalone="no"?><!DOCTYPE svg PUBLIC "-//W3C//DTD SVG 1.1//EN" "http://www.w3.org/Graphics/SVG/1.1/DTD/svg11.dtd"><svg t="1551144231882" class="icon" style="" viewBox="0 0 1024 1024" version="1.1" xmlns="http://www.w3.org/2000/svg" p-id="3372" xmlns:xlink="http://www.w3.org/1999/xlink" width="200" height="200"><defs><style type="text/css"></style></defs><path d="M1018.288 508.026c0-280.11-227.797-507.985-507.77-507.985C230.503 0.04 2.727 227.916 2.727 508.026c0 145.549 61.51 276.99 159.885 369.69l-0.294 0.348 12.814 11.246a507.874 507.874 0 0 0 98.478 67.944c0.409 0.217 0.818 0.43 1.226 0.647a501.55 501.55 0 0 0 7.423 3.822 527.84 527.84 0 0 0 5.203 2.594c0.929 0.455 1.855 0.916 2.787 1.366a499.5 499.5 0 0 0 9.036 4.252c0.248 0.114 0.496 0.23 0.744 0.342 57.443 26.278 120.599 42.145 187.047 45.18a514.152 514.152 0 0 0 11.493 0.4c0.374 0.01 0.75 0.014 1.124 0.022 3.6 0.074 7.206 0.122 10.824 0.122 3.62 0 7.228-0.048 10.83-0.122 0.369-0.008 0.738-0.013 1.104-0.022 3.61-0.084 7.21-0.21 10.802-0.368l0.655-0.03c74.505-3.395 144.88-22.923 207.698-55.179 0.204-0.106 0.408-0.215 0.613-0.319a520.012 520.012 0 0 0 12.328-6.573 522.61 522.61 0 0 0 4.196-2.334 507.867 507.867 0 0 0 87.08-61.744l12.794-11.246-0.262-0.311c98.4-92.701 159.932-224.158 159.932-369.727z m-980.743 0c0-260.909 212.18-473.147 472.971-473.147 260.773 0 472.953 212.238 472.953 473.147 0 135.25-57.026 257.415-148.276 343.723-32.944-31.901-83.408-58.493-143.008-75.339-29.284-20.263-56.074-42.039-70.025-65.714v-68.54c17.679-20.559 29.493-47.382 40.566-81.926 2.667-4.294 5.332-8.594 7.971-12.894 14.75-8.024 28.56-26.974 33.248-47.87 1.766-7.939 2.69-15.463 2.834-22.413 4.303-12.513 6.866-24.764 6.866-36.604 0-23.605-0.937-45.41-2.698-65.566 9.645-71.439 1.19-130.56-24.99-165.285-14.343-19-33.898-30.855-57.218-34.86-11.865-9.79-24.411-17.266-37.254-22.92-11.187-9.144-28.595-15.046-65.975-15.453-5.07-0.358-10.08-0.56-15.013-0.636-17.713-0.276-33.695 1.504-48.121 5.379-42.603 8.205-76.388 27.063-100.79 56.38-43.303 51.923-55.569 134.804-36.603 246.37-8.15 11.678-10.639 31.194-6.29 54.393 3.948 20.787 16.693 39.69 31.267 48.306 1.887 4.523 4.012 9.034 6.307 13.534 13.567 36.818 27.792 63.139 43.879 81.359 0.696 22.479 1.08 46.906 0.843 62.377-13.732 26.653-43.16 50.911-75.106 73.286-59.232 17.54-108.008 43.586-140.078 74.621-91.243-86.309-148.26-208.469-148.26-343.708z" p-id="3373"></path></svg>