<?xml version="1.0" standalone="no"?><!DOCTYPE svg PUBLIC "-//W3C//DTD SVG 1.1//EN" "http://www.w3.org/Graphics/SVG/1.1/DTD/svg11.dtd"><svg t="1551144311061" class="icon" style="" viewBox="0 0 1024 1024" version="1.1" xmlns="http://www.w3.org/2000/svg" p-id="2652" xmlns:xlink="http://www.w3.org/1999/xlink" width="200" height="200"><defs><style type="text/css"></style></defs><path d="M999.6192 572.3424q0 15.83786667-11.58613333 27.424t-27.424 11.58613333h-136.53333334q0 104.2336-40.84266666 176.752L910.01386667 915.50933333Q921.6 927.09546666 921.6 942.93333333t-11.58613333 27.424q-10.96106667 11.58506667-27.424 11.58506667t-27.424-11.58506667L734.47253333 850.28586666q-3.0432 3.04213333-9.12853333 7.91893334t-25.58933333 17.35893333-39.63413334 22.23573333-49.9712 17.67146667-59.1392 7.91893333v-546.13333333H472.992v546.13333333q-31.0912 0-61.86986667-8.23146666t-53.01333333-20.128-40.21866667-23.75786667-26.52693333-19.81653333l-9.12853333-8.544-111.52746667 126.15786666q-12.21013333 12.79466667-29.2576 12.79466667-14.62826667 0-26.2144-9.75253333-11.58613333-10.96106667-12.4832-27.11146667t9.44-28.35946667L235.30666667 778.27413333q-35.34293333-69.47626667-35.34293334-166.99946667h-136.53333333q-15.83786667 0-27.424-11.58613333t-11.58506667-27.424 11.58506667-27.424 27.424-11.58506667h136.53333333v-179.21066666l-105.44213333-105.44213334q-11.58613333-11.58613333-11.58613333-27.424t11.58613333-27.424 27.424-11.58506666 27.42293333 11.58613333l105.4432 105.44213333h514.4576l105.44213334-105.44213333q11.58613333-11.58613333 27.424-11.58613333t27.424 11.58613333 11.58506666 27.424-11.58506666 27.424l-105.4432 105.44213333v179.2096h136.53333333q15.83786667 0 27.424 11.58613334t11.58506667 27.424zM707.04746667 221.25866666H316.95253333q0-81.0624 56.992-138.05546666T512 26.21013333t138.0544 56.992 56.99306667 138.05546667z" p-id="2653"></path></svg>