<?xml version="1.0" standalone="no"?><!DOCTYPE svg PUBLIC "-//W3C//DTD SVG 1.1//EN" "http://www.w3.org/Graphics/SVG/1.1/DTD/svg11.dtd"><svg t="1551144260703" class="icon" style="" viewBox="0 0 1024 1024" version="1.1" xmlns="http://www.w3.org/2000/svg" p-id="4071" xmlns:xlink="http://www.w3.org/1999/xlink" width="200" height="200"><defs><style type="text/css"></style></defs><path d="M237.7146875 649.143125q0-28.393125-20.0896875-48.4828125t-48.481875-20.08875T120.659375 600.659375t-20.08875 48.4828125T120.659375 697.625t48.4828125 20.0896875T217.625 697.625t20.0896875-48.481875z m102.856875-240q0-28.393125-20.0896875-48.4828125T272 340.5715625t-48.481875 20.08875-20.0896875 48.4828125T223.518125 457.625 272 477.7146875 320.481875 457.625t20.0896875-48.481875z m229.2853125 257.6784375l54.1078125-204.643125q3.21375-13.9284375-4.018125-25.981875t-20.625-15.8034375T573.606875 423.875t-16.0715625 21.1603125l-54.106875 204.643125q-32.143125 2.6784375-57.3215625 23.3034375t-33.75 52.768125q-10.71375 41.25 10.7146875 78.2146875T485.75 851.643125t78.2146875-10.7146875T611.643125 778.25q8.5715625-32.143125-3.2146875-62.6784375t-38.5715625-48.75z m353.5715625-17.6784375q0-28.393125-20.08875-48.4828125t-48.4828125-20.08875T806.375 600.659375t-20.0896875 48.4828125T806.375 697.625t48.481875 20.0896875T903.340625 697.625t20.08875-48.481875zM580.5715625 306.284375q0-28.3921875-20.0896875-48.481875T512 237.715625t-48.481875 20.08875-20.0896875 48.481875 20.0896875 48.4828125T512 374.856875t48.481875-20.08875 20.0896875-48.4828125z m240 102.8578125q0-28.393125-20.0896875-48.4828125T752 340.5715625t-48.481875 20.08875-20.0896875 48.4828125T703.518125 457.625 752 477.7146875 800.481875 457.625t20.0896875-48.481875z m171.4284375 240q0 139.8215625-75.5353125 258.75-10.179375 15.5353125-28.929375 15.5353125H136.465625q-18.75 0-28.929375-15.5353125Q32 789.5 32 649.143125q0-97.5 38.0353125-186.4284375T172.356875 309.5t153.2146875-102.3215625T512 169.143125t186.4284375 38.0353125T851.643125 309.5t102.3215625 153.2146875T992 649.143125z" p-id="4072"></path></svg>