<?xml version="1.0" standalone="no"?><!DOCTYPE svg PUBLIC "-//W3C//DTD SVG 1.1//EN" "http://www.w3.org/Graphics/SVG/1.1/DTD/svg11.dtd"><svg t="1551144288174" class="icon" style="" viewBox="0 0 1024 1024" version="1.1" xmlns="http://www.w3.org/2000/svg" p-id="1851" xmlns:xlink="http://www.w3.org/1999/xlink" width="200" height="200"><defs><style type="text/css"></style></defs><path d="M816 279.4304l-0.10026667-0.10026667-37.22986666-37.22986666-2.10026667-2.10026667-80-80H480v-14.77973333C480 83.32053333 430.29973333 32.21973333 368.4 32A112 112 0 0 0 256 144v16h-58A70 70 0 0 0 128 230v692A70 70 0 0 0 198 992h628A70 70 0 0 0 896 922v-562.57066667z m-96 17.1392L759.4304 336H720zM336 144a32 32 0 0 1 32.90026667-32c17.42933333 0.48 31.09973333 15.22026667 31.09973333 32.66026667V160h-64z m480 730a40 40 0 0 1-40 40h-528a40 40 0 0 1-40-40v-592a40 40 0 0 1 40-40h8v124.77973333c0 61.89973333 49.70026667 113.00053333 111.6 113.22026667A112 112 0 0 0 480 368v-22.86933333a40 40 0 0 0-80-1.45066667v23.65013333c0 17.44-13.6704 32.18026667-31.09973333 32.66026667A32 32 0 0 1 336 368V242h304v104A70 70 0 0 0 710 416H816z" fill="#8A8A8A" p-id="1852"></path></svg>