<?xml version="1.0" standalone="no"?><!DOCTYPE svg PUBLIC "-//W3C//DTD SVG 1.1//EN" "http://www.w3.org/Graphics/SVG/1.1/DTD/svg11.dtd"><svg t="1551147889481" class="icon" style="" viewBox="0 0 1024 1024" version="1.1" xmlns="http://www.w3.org/2000/svg" p-id="1559" xmlns:xlink="http://www.w3.org/1999/xlink" width="200" height="200"><defs><style type="text/css"></style></defs><path d="M640.108 621.95355556c21.096 185.8-253.376 240.7-337.834 249.143 12.674-130.919-4.23-350.504 202.685-350.504-21.096-12.671 33.786-135.11 88.668-198.452 71.807-337.833-198.45-232.262-316.698-185.82-494.076 363.157-152.03 739.007-135.13 760.103 367.508 341.576 784.178-218.949 667.224-396.947-12.71 7.629-118.265 118.247-168.915 122.477z m-206.935-430.73c43.74 0 79.175 35.454 79.175 79.171 0 43.742-35.436 79.178-79.175 79.178-43.736 0-79.175-35.436-79.175-79.178 0-43.717 35.438-79.172 79.175-79.172zM179.797 729.63055556c-43.718 0-79.173-35.452-79.173-79.17 0-43.741 35.454-79.18 79.173-79.18 43.74 0 79.175 35.439 79.175 79.18 0 43.716-35.433 79.17-79.175 79.17z m63.345-232.26c-43.718 0-79.174-35.436-79.174-79.174 0-43.738 35.456-79.174 79.174-79.174 43.74 0 79.195 35.436 79.195 79.174 0 43.738-35.455 79.175-79.195 79.175z m383.58 84.458c119.654-49.26 387.092-524.326 387.092-524.326l-24.629-21.114S588.16 385.10155556 546.362 523.63755556c14.375 9.886 62.01 47.702 80.36 58.192z m-80.923-56.31c0.175-0.62 0.374-1.254 0.564-1.883-4.923-3.384-5.956-3.504-0.564 1.884z m-123.191 63.342c-59.811 45.745-42.23 183.001-73.893 232.26 66.86-49.259 165.403-35.198 218.177-123.151 17.6-49.28-14.062-172.45-144.284-109.109z" p-id="1560"></path></svg>