<?xml version="1.0" standalone="no"?><!DOCTYPE svg PUBLIC "-//W3C//DTD SVG 1.1//EN" "http://www.w3.org/Graphics/SVG/1.1/DTD/svg11.dtd"><svg t="1551144302005" class="icon" style="" viewBox="0 0 1024 1024" version="1.1" xmlns="http://www.w3.org/2000/svg" p-id="2309" xmlns:xlink="http://www.w3.org/1999/xlink" width="200" height="200"><defs><style type="text/css"></style></defs><path d="M456 484H91.9c-15.5 0-28-12.5-28-28V91.9c0-15.5 12.5-28 28-28H456c15.5 0 28 12.5 28 28V456c0 15.5-12.5 28-28 28z m-336.1-56H428V119.9H119.9V428zM456 960.1H91.9c-15.5 0-28-12.5-28-28V568c0-15.5 12.5-28 28-28H456c15.5 0 28 12.5 28 28v364.1c0 15.5-12.5 28-28 28z m-336.1-56H428V596H119.9v308.1zM932.1 484H568c-15.5 0-28-12.5-28-28V91.9c0-15.5 12.5-28 28-28h364.1c15.5 0 28 12.5 28 28V456c0 15.5-12.5 28-28 28zM596 428h308.1V119.9H596V428z m336.1 532.1H568c-15.5 0-28-12.5-28-28V568c0-15.5 12.5-28 28-28h364.1c15.5 0 28 12.5 28 28v364.1c0 15.5-12.5 28-28 28z m-336.1-56h308.1V596H596v308.1z" fill="#666666" p-id="2310"></path></svg>