<?xml version="1.0" standalone="no"?><!DOCTYPE svg PUBLIC "-//W3C//DTD SVG 1.1//EN" "http://www.w3.org/Graphics/SVG/1.1/DTD/svg11.dtd"><svg t="1551144252756" class="icon" style="" viewBox="0 0 1024 1024" version="1.1" xmlns="http://www.w3.org/2000/svg" p-id="3843" xmlns:xlink="http://www.w3.org/1999/xlink" width="200" height="200"><defs><style type="text/css"></style></defs><path d="M520 44C255.04 44 40 259.04 40 524c0 264.96 215.04 480 480 480 264.96 0 480-215.04 480-480 0-264.96-215.04-480-480-480z m192 448c17.92 0 32 14.08 32 32s-14.08 32-32 32H552v128h160c17.92 0 32 14.08 32 32s-14.08 32-32 32H552v96c0 17.92-14.08 32-32 32s-32-14.08-32-32v-96H328c-17.92 0-32-14.08-32-32s14.08-32 32-32h160V556H328c-17.92 0-32-14.08-32-32s14.08-32 32-32h160v-21.12L304.96 287.84c-12.16-12.16-12.16-31.36 0-42.88 12.16-12.16 31.36-12.16 42.88 0l171.52 171.52L692.8 243.04c12.16-12.16 32-12.16 44.16 0 12.16 12.16 12.16 32 0 44.16L552 472.16V492h160z" p-id="3844"></path></svg>