<?xml version="1.0" standalone="no"?><!DOCTYPE svg PUBLIC "-//W3C//DTD SVG 1.1//EN" "http://www.w3.org/Graphics/SVG/1.1/DTD/svg11.dtd"><svg t="1551144304912" class="icon" style="" viewBox="0 0 1024 1024" version="1.1" xmlns="http://www.w3.org/2000/svg" p-id="2423" xmlns:xlink="http://www.w3.org/1999/xlink" width="200" height="200"><defs><style type="text/css"></style></defs><path d="M512 0C229.248 0 0 229.248 0 512s229.248 512 512 512 512-229.248 512-512S794.752 0 512 0z m0 976C255.744 976 48 768.256 48 512S255.744 48 512 48s464 207.744 464 464-207.744 464-464 464z" p-id="2424"></path><path d="M832 504.272c0-0.24-0.064-0.432-0.064-0.672a32.588 32.588 0 0 0-0.576-5.696c-0.064-0.336-0.208-0.656-0.288-1.008-0.384-1.664-0.848-3.328-1.52-4.944-0.336-0.816-0.816-1.536-1.2-2.32-0.512-1.008-0.976-2.032-1.616-2.992-1.344-2.064-2.944-3.904-4.688-5.6L641.184 300.208c-12.336-12.336-32.432-12.224-44.944 0.336-12.496 12.48-12.656 32.592-0.336 44.944l126.816 126.8H223.552c-17.44 0-31.584 14.304-31.536 32-0.016 17.664 14.096 32 31.536 32.016h501.104L595.92 665.056c-12.336 12.336-12.224 32.432 0.32 44.928 12.496 12.496 32.592 12.656 44.944 0.336l181.648-181.68c6.4-6.384 9.376-14.88 9.056-23.312 0.016-0.352 0.112-0.704 0.112-1.056z" p-id="2425"></path></svg>