<?xml version="1.0" standalone="no"?><!DOCTYPE svg PUBLIC "-//W3C//DTD SVG 1.1//EN" "http://www.w3.org/Graphics/SVG/1.1/DTD/svg11.dtd"><svg t="1551144295004" class="icon" style="" viewBox="0 0 1024 1024" version="1.1" xmlns="http://www.w3.org/2000/svg" p-id="2079" xmlns:xlink="http://www.w3.org/1999/xlink" width="200" height="200"><defs><style type="text/css"></style></defs><path d="M704 0H384c-35.392 0-64 28.672-64 64v256c0 35.328 28.608 64 64 64h320c35.392 0 64-28.672 64-64V64c0-35.328-28.608-64-64-64z m0 192v64H384V128c0-35.328 28.608-64 64-64h192c35.392 0 64 28.672 64 64v64zM704 832H320V704H0v256c0 35.392 28.608 64 64 64h896c35.392 0 64-28.608 64-64V704H704v128z" fill="#8A8A8A" p-id="2080"></path><path d="M320 448h384l1.344 192H1024V320c0-35.392-28.608-64-64-64H64c-35.392 0-64 28.608-64 64v320h320V448z" fill="#8A8A8A" p-id="2081"></path><path d="M384 512h256v256H384V512z" fill="#8A8A8A" p-id="2082"></path></svg>