<?xml version="1.0" standalone="no"?><!DOCTYPE svg PUBLIC "-//W3C//DTD SVG 1.1//EN" "http://www.w3.org/Graphics/SVG/1.1/DTD/svg11.dtd"><svg t="1551144207732" class="icon" style="" viewBox="0 0 1024 1024" version="1.1" xmlns="http://www.w3.org/2000/svg" p-id="2683" xmlns:xlink="http://www.w3.org/1999/xlink" width="200" height="200"><defs><style type="text/css"></style></defs><path d="M822.69 121.774c-8.7-7.456-21.128-13.67-33.555-13.67-27.34 0-48.468 22.37-49.71 49.71 0 22.37 12.427 34.798 12.427 34.798 95.692 72.08 157.83 186.413 157.83 314.417 0 218.725-178.957 397.682-397.682 397.682S114.318 725.754 114.318 507.03c0-129.247 62.138-242.338 157.83-314.417 8.7-8.7 14.913-21.127 14.913-34.798 0-27.34-22.37-49.71-49.71-49.71-22.37 0-34.797 13.67-34.797 13.67C89.463 212.496 16.14 350.442 16.14 507.03c0 274.65 222.454 497.103 497.103 497.103 273.406 0 497.102-222.454 497.102-497.103-1.242-155.345-75.808-293.29-187.656-385.255z" p-id="2684"></path><path d="M512 562.953c27.34 0 49.71-22.37 49.71-49.71V70.82c0-27.34-22.37-49.71-49.71-49.71s-49.71 22.37-49.71 49.71v443.665c0 26.097 22.37 48.467 49.71 48.467z" p-id="2685"></path></svg>