<?xml version="1.0" standalone="no"?><!DOCTYPE svg PUBLIC "-//W3C//DTD SVG 1.1//EN" "http://www.w3.org/Graphics/SVG/1.1/DTD/svg11.dtd"><svg t="1551144200256" class="icon" style="" viewBox="0 0 1024 1024" version="1.1" xmlns="http://www.w3.org/2000/svg" p-id="2455" xmlns:xlink="http://www.w3.org/1999/xlink" width="200" height="200"><defs><style type="text/css"></style></defs><path d="M528.516 594.58v132.13H198.194s-1.685-42.777 0-99.097c1.684-56.32 132.129-99.097 132.129-99.097s28.21-0.43 61.34-0.528c-70.722-2.874-127.405-67.849-127.405-148.117 0-82.085 59.16-148.645 132.13-148.645 72.967 0 132.128 66.56 132.128 148.645 0 80.202-56.551 145.078-127.174 148.084 21.108-0.033 43.338 0.099 61.11 0.561 49.086 1.255 66.064 66.065 66.064 66.065z m473.385 66.065h-69.896c16.483-46.575 25.93-96.454 25.93-148.645C957.935 265.711 758.29 66.065 512 66.065 265.711 66.065 66.065 265.71 66.065 512c0 246.289 199.646 445.935 445.935 445.935 40.068 0 78.683-5.78 115.613-15.69v68.146C590.419 1019.012 551.837 1024 512 1024 229.244 1024 0 794.756 0 512 0 229.21 229.244 0 512 0s512 229.21 512 512c0 51.729-7.829 101.574-22.099 148.645zM561.548 528.516v-33.032h132.13v33.032h-132.13z m0-231.226h297.29v33.033h-297.29V297.29z m297.29 132.13h-297.29v-33.033h297.29v33.032zM809.29 660.644c100.352 0 181.678 81.326 181.678 181.678S909.642 1024 809.29 1024s-181.677-81.325-181.677-181.677c0-100.352 81.325-181.678 181.677-181.678z m-31.017 289.627l23.354-23.387-5.153-5.12 130.84-116.472-21.966-24.675-132.261 117.76-64.908-64.908-23.354 23.354 93.448 93.448z" p-id="2456"></path></svg>