<?xml version="1.0" standalone="no"?><!DOCTYPE svg PUBLIC "-//W3C//DTD SVG 1.1//EN" "http://www.w3.org/Graphics/SVG/1.1/DTD/svg11.dtd"><svg t="1551144292244" class="icon" style="" viewBox="0 0 1024 1024" version="1.1" xmlns="http://www.w3.org/2000/svg" p-id="1965" xmlns:xlink="http://www.w3.org/1999/xlink" width="200" height="200"><defs><style type="text/css"></style></defs><path d="M905.75 568.25h-787.5C87.312 568.25 62 542.937 62 512c0-30.938 25.313-56.25 56.25-56.25h787.5c30.938 0 56.25 25.313 56.25 56.25 0 30.938-25.313 56.25-56.25 56.25z m0-330.469h-787.5c-30.938 0-56.25-25.312-56.25-56.25 0-30.937 25.313-56.25 56.25-56.25h787.5c30.938 0 56.25 25.313 56.25 56.25 0 30.938-25.313 56.25-56.25 56.25zM118.25 786.22h787.5c30.938 0 56.25 25.312 56.25 56.25 0 30.937-25.313 56.25-56.25 56.25h-787.5c-30.938 0-56.25-25.313-56.25-56.25 0-30.938 25.313-56.25 56.25-56.25z" p-id="1966"></path></svg>