<?xml version="1.0" standalone="no"?><!DOCTYPE svg PUBLIC "-//W3C//DTD SVG 1.1//EN" "http://www.w3.org/Graphics/SVG/1.1/DTD/svg11.dtd"><svg t="1551144220686" class="icon" style="" viewBox="0 0 1024 1024" version="1.1" xmlns="http://www.w3.org/2000/svg" p-id="3028" xmlns:xlink="http://www.w3.org/1999/xlink" width="200" height="200"><defs><style type="text/css"></style></defs><path d="M896.114 741.148c9.557-0.455 19 2.048 27.079 7.282-32.882-21.049-52.793-57.344-52.68-96.483V425.529c0-166.002-120.262-304.47-280.917-338.489v-8.192c0-42.212-34.247-76.345-76.458-76.345h-0.114c-42.212 0-76.572 34.247-76.572 76.459v7.964C275.684 121.06 155.534 259.413 155.534 425.53V652.06c0 40.62-21.162 76.118-52.793 96.484 7.965-5.234 17.522-7.85 27.08-7.282-28.104-1.024-51.77 20.935-52.793 49.038-1.024 28.104 20.935 51.77 49.038 52.793h769.82c28.103 0.114 50.973-22.755 51.086-50.858 0.114-28.217-22.641-51.087-50.858-51.087z m-382.976 280.349c70.542 0 127.658-57.117 127.658-127.317h-255.43c0 70.2 57.116 127.317 127.772 127.317z" p-id="3029"></path></svg>