<?xml version="1.0" standalone="no"?><!DOCTYPE svg PUBLIC "-//W3C//DTD SVG 1.1//EN" "http://www.w3.org/Graphics/SVG/1.1/DTD/svg11.dtd"><svg t="1551144256558" class="icon" style="" viewBox="0 0 1024 1024" version="1.1" xmlns="http://www.w3.org/2000/svg" p-id="3957" xmlns:xlink="http://www.w3.org/1999/xlink" width="200" height="200"><defs><style type="text/css"></style></defs><path d="M330.926 129.755a386.808 386.808 0 0 1 419.334 37.186 116.508 116.508 0 1 0 46.603-62.72 466.034 466.034 0 0 0-509.627-39.613l1.65 1.456a191.17 191.17 0 0 1 42.04 63.691zM123.64 473.164a385.352 385.352 0 0 1 32.719-155.345h7.379a116.508 116.508 0 1 0-78.935-30.972 466.034 466.034 0 0 0 243.794 614.874 194.957 194.957 0 0 1 17.574-77.673 388.361 388.361 0 0 1-222.531-350.884z m766.043-90.294A388.361 388.361 0 0 1 616.76 847.059a116.508 116.508 0 1 0 10.388 77.672 466.034 466.034 0 0 0 335.739-569.726 192.919 192.919 0 0 1-73.206 27.865z" p-id="3958"></path></svg>