<?xml version="1.0" standalone="no"?><!DOCTYPE svg PUBLIC "-//W3C//DTD SVG 1.1//EN" "http://www.w3.org/Graphics/SVG/1.1/DTD/svg11.dtd"><svg t="1551144193593" class="icon" style="" viewBox="0 0 1024 1024" version="1.1" xmlns="http://www.w3.org/2000/svg" p-id="2226" xmlns:xlink="http://www.w3.org/1999/xlink" width="200" height="200"><defs><style type="text/css"></style></defs><path d="M291.212 166.488H732.79c14.427 0 26.24-11.807 26.24-26.238V26.584c0-14.43-11.813-26.237-26.24-26.237H291.212c-14.435 0-26.24 11.808-26.24 26.237V140.25c0 14.433 11.805 26.239 26.24 26.239z" p-id="2227"></path><path d="M860.248 80.794h-74.98v59.46c0 28.94-23.555 52.478-52.48 52.478H291.22c-28.934 0-52.48-23.538-52.48-52.479V80.794h-74.988c-43.283 0-78.705 35.414-78.705 78.699v785.462c0 43.282 35.422 78.698 78.705 78.698h696.496c43.283 0 78.705-35.416 78.705-78.698V159.493c0-43.285-35.422-78.699-78.705-78.699z m-46.063 706.238c0 19.977-16.34 36.321-36.319 36.321h-530.71c-19.979 0-36.32-16.344-36.32-36.321v-6.055c0-19.979 16.341-36.323 36.32-36.323h530.71c19.98 0 36.32 16.344 36.32 36.323v6.055z m0-214.665c0 19.977-16.34 36.321-36.319 36.321h-530.71c-19.979 0-36.32-16.344-36.32-36.321v-6.057c0-19.977 16.341-36.321 36.32-36.321h530.71c19.98 0 36.32 16.344 36.32 36.32v6.058z m0-214.667c0 19.979-16.34 36.323-36.319 36.323h-530.71c-19.979 0-36.32-16.344-36.32-36.323v-6.055c0-19.977 16.341-36.323 36.32-36.323h530.71c19.98 0 36.32 16.346 36.32 36.323v6.055z" p-id="2228"></path></svg>