<?xml version="1.0" standalone="no"?><!DOCTYPE svg PUBLIC "-//W3C//DTD SVG 1.1//EN" "http://www.w3.org/Graphics/SVG/1.1/DTD/svg11.dtd"><svg t="1551144481227" class="icon" style="" viewBox="0 0 1024 1024" version="1.1" xmlns="http://www.w3.org/2000/svg" p-id="3243" xmlns:xlink="http://www.w3.org/1999/xlink" width="200" height="200"><defs><style type="text/css"></style></defs><path d="M880.48357603 437.91590627l-71.38525867 0 0.21422991-210.3159296c0-125.13726805-129.97258581-226.52640939-290.65927453-226.52640938-160.4747867 0-290.65927453 101.38914133-290.65927453 226.52640938l-1.35174598 210.3159296-72.94890667 0c-40.17050738 0-71.1000064 32.38603093-71.1000064 63.70556815l-1.56481309 455.07869241c0 31.28344349 34.05795897 63.70556814 74.22963144 63.70556814l726.93227292 0c40.03079282 0 70.95679773-32.42212466 70.95679772-63.70556814l1.56481309-455.07869241C954.71204351 470.30310115 920.51436885 437.91590627 880.48357603 437.91590627zM662.48795591 437.91590627L372.25597837 437.91590627 372.25597837 219.49531819c0-62.42600733 66.40789731-105.19172893 146.39729551-105.19172893 80.05925661 0 144.83015453 42.76455765 144.83015452 105.19172893L662.48795591 437.91590627z" p-id="3244"></path></svg>