<?xml version="1.0" standalone="no"?><!DOCTYPE svg PUBLIC "-//W3C//DTD SVG 1.1//EN" "http://www.w3.org/Graphics/SVG/1.1/DTD/svg11.dtd"><svg t="1551144160694" class="icon" style="" viewBox="0 0 1024 1024" version="1.1" xmlns="http://www.w3.org/2000/svg" p-id="1883" xmlns:xlink="http://www.w3.org/1999/xlink" width="200" height="200"><defs><style type="text/css"></style></defs><path d="M1019.385 410.056c-3.968-22.4-25.408-45.247-47.743-50.175l-16.64-3.84a166.078 166.078 0 0 1-95.999-76.35 167.806 167.806 0 0 1-17.6-122.495l5.184-15.744c6.72-21.76-1.92-51.84-19.391-66.815 0 0-15.744-13.312-59.712-38.911C723.325 10.254 704.381 3.15 704.381 3.15c-21.503-7.872-51.583-0.32-67.199 16.448L625.47 32.014a163.71 163.71 0 0 1-113.662 45.375 164.35 164.35 0 0 1-114.174-45.695l-11.072-12.16c-15.552-16.64-45.76-24.128-67.327-16.32 0 0-19.2 7.104-63.36 32.576-44.159 25.791-59.647 39.103-59.647 39.103-17.407 14.784-26.111 44.607-19.391 66.623l4.8 15.936a168.062 168.062 0 0 1-17.6 122.302 165.118 165.118 0 0 1-96.575 76.543l-16.064 3.648c-22.015 5.12-43.647 27.648-47.743 50.175 0 0-3.648 20.16-3.648 71.487 0 51.2 3.648 71.423 3.648 71.423 3.968 22.656 25.408 45.248 47.743 50.176l15.68 3.648a164.478 164.478 0 0 1 96.639 76.799c22.015 38.463 27.263 82.367 17.664 122.43l-4.48 15.552c-6.784 21.823 1.92 51.84 19.391 66.815 0 0 15.68 13.312 59.712 38.911 44.159 25.6 63.167 32.576 63.167 32.576 21.375 7.872 51.519 0.32 67.199-16.448l11.008-11.84c63.935-61.247 164.733-61.183 228.604 0.064l11.008 11.968c15.424 16.704 45.696 24.128 67.2 16.384 0 0 19.2-7.104 63.358-32.64s59.648-38.847 59.648-38.847c17.407-14.72 26.111-44.8 19.391-66.815l-4.736-16.192a166.782 166.782 0 0 1 114.239-198.59l15.744-3.647c22.015-5.12 43.647-27.648 47.743-50.176 0 0 3.648-20.223 3.648-71.487-0.192-51.199-3.84-71.55-3.84-71.55z m-507.577 276.86c-112.574 0-204.03-91.902-204.03-205.437A204.477 204.477 0 0 1 511.873 276.49c112.446 0 203.965 91.775 203.965 205.31-0.256 113.278-91.519 205.117-204.029 205.117z" p-id="1884"></path></svg>