<?xml version="1.0" standalone="no"?><!DOCTYPE svg PUBLIC "-//W3C//DTD SVG 1.1//EN" "http://www.w3.org/Graphics/SVG/1.1/DTD/svg11.dtd"><svg t="1551144172830" class="icon" style="" viewBox="0 0 1024 1024" version="1.1" xmlns="http://www.w3.org/2000/svg" p-id="2111" xmlns:xlink="http://www.w3.org/1999/xlink" width="200" height="200"><defs><style type="text/css"></style></defs><path d="M453.33973333 874.27733333c106.25706667 0 203.28106667-39.54346667 277.16693334-104.7104l208.54186666 209.84746667c11.6288 11.62666667 30.48 11.62666667 42.10773334 0 11.61386667-11.62773333 11.61386667-30.48 0-42.10986667L772.26666667 727.13066667c62.52373333-73.22453333 100.27946667-168.23253333 100.27946666-272.05973334 0-231.51466667-187.6928-419.2064-419.2064-419.2064C221.8112 35.86453333 34.13333333 223.55733333 34.13333333 455.07093333c0 231.51146667 187.67786667 419.2064 419.2064 419.2064z m0-754.74453333c185.31093333 0 335.53706667 150.22613333 335.53706667 335.53813333 0 185.312-150.22613333 335.53706667-335.53706667 335.53706667-185.30986667 0-335.53813333-150.22506667-335.53813333-335.53706667 0-185.312 150.22933333-335.53813333 335.53813333-335.53813333z" p-id="2112"></path><path d="M549.17973333 633.9616h95.17653334c7.5264 0 13.6128-6.08853333 13.6128-13.6128V269.98186667c0-7.52426667-6.0864-13.61386667-13.6128-13.61386667h-95.17653334c-7.5264 0-13.6128 6.0896-13.6128 13.61386667v350.36693333c0 7.52426667 6.0864 13.6128 13.6128 13.6128z m17.18613334-338.45653333h60.80746666v299.32373333h-60.80746666V295.50506667zM399.12426667 633.9616h95.17866666c7.5232 0 13.61173333-6.08853333 13.61173334-13.6128V478.86506667c0-7.52533333-6.08853333-13.61493333-13.6128-13.61493334h-95.17866667c-7.52533333 0-13.61173333 6.0896-13.61173333 13.61493334v141.4848c0 7.5232 6.0864 13.61066667 13.6128 13.61066666zM416.30933333 504.384h60.80746667v90.44266667H416.30933333v-90.44266667zM250.26133333 633.9616h95.17653334c7.52746667 0 13.61386667-6.08853333 13.61386666-13.6128V400.77653333c0-7.52533333-6.0864-13.61493333-13.61386666-13.61493333H250.26133333c-7.5264 0-13.6128 6.09066667-13.6128 13.61493333v219.57226667c0 7.52426667 6.0864 13.6128 13.6128 13.6128z m17.1872-207.66293333h60.80746667V594.82666667h-60.80746667V426.29866667z" p-id="2113"></path></svg>