<?xml version="1.0" standalone="no"?><!DOCTYPE svg PUBLIC "-//W3C//DTD SVG 1.1//EN" "http://www.w3.org/Graphics/SVG/1.1/DTD/svg11.dtd"><svg t="1551144217614" class="icon" style="" viewBox="0 0 1024 1024" version="1.1" xmlns="http://www.w3.org/2000/svg" p-id="2914" xmlns:xlink="http://www.w3.org/1999/xlink" width="200" height="200"><defs><style type="text/css"></style></defs><path d="M1023.054 432.69c0 70.07-57.194 130.42-127.764 130.42-70.568 0-127.764-60.351-127.764-130.42 0 70.07-57.195 130.42-127.764 130.42-70.57 0-127.764-60.351-127.764-130.42 0 70.07-57.194 130.42-127.763 130.42S256.47 502.76 256.47 432.69c0 70.07-57.195 130.42-127.764 130.42C58.139 563.11 0.943 502.76 0.943 432.69l102.21-227.328h817.69l102.211 227.328zM869.737 154.255H154.263c-31.742 0-51.105-24.828-51.105-51.105 0-26.276 16.02-51.105 57.494-51.105h702.7c38.528 0 57.494 24.83 57.494 51.105 0 26.277-24.656 51.105-51.109 51.105z m-715.474 434.41c4.592-0.425-4.468 0.748 0 0 0.973-0.175-0.949 0.15 0 0 2.071-0.401 23.507 0.448 25.554 0 8.683-1.997 17.392 3.144 25.553 0v229.973h613.264V588.664h25.553c8.137 3.145 16.893-1.996 25.553 0 2.047 0.45-2.07-0.4 0 0 0.95 0.15-0.973-0.174 0 0 4.494 0.748-4.59-0.424 0 0 5.266 0.475 20.162 0 25.553 0 10.931 0 15.172 1.897 25.555 0V920.85c0 26.25-24.655 51.106-51.107 51.106H154.265c-26.451 0-51.105-24.855-51.105-51.106V588.664c10.381 1.897 14.624 0 25.553 0 5.387 0 20.286 0.475 25.55 0z" p-id="2915"></path></svg>